<mxfile host="app.diagrams.net" agent="Mozilla/5.0 (Windows NT 10.0; Win64; x64) AppleWebKit/537.36 (KHTML, like Gecko) Chrome/131.0.0.0 Safari/537.36" version="24.9.3">
  <diagram id="C5RBs43oDa-KdzZeNtuy" name="Page-1">
    <mxGraphModel dx="2501" dy="738" grid="0" gridSize="10" guides="1" tooltips="1" connect="1" arrows="1" fold="1" page="1" pageScale="1" pageWidth="827" pageHeight="1169" math="0" shadow="0">
      <root>
        <mxCell id="WIyWlLk6GJQsqaUBKTNV-0" />
        <mxCell id="WIyWlLk6GJQsqaUBKTNV-1" parent="WIyWlLk6GJQsqaUBKTNV-0" />
        <mxCell id="VxdRvXpQJMo_E4zNavWg-3" value="Customer" style="rounded=0;whiteSpace=wrap;html=1;fillColor=#dae8fc;strokeColor=#6c8ebf;" parent="WIyWlLk6GJQsqaUBKTNV-1" vertex="1">
          <mxGeometry x="-470" y="495" width="130" height="40" as="geometry" />
        </mxCell>
        <mxCell id="VxdRvXpQJMo_E4zNavWg-17" value="" style="endArrow=none;html=1;rounded=0;exitX=1;exitY=0.5;exitDx=0;exitDy=0;entryX=0;entryY=0.5;entryDx=0;entryDy=0;" parent="WIyWlLk6GJQsqaUBKTNV-1" source="VxdRvXpQJMo_E4zNavWg-3" edge="1">
          <mxGeometry width="50" height="50" relative="1" as="geometry">
            <mxPoint x="-170" y="555" as="sourcePoint" />
            <mxPoint x="-285" y="515" as="targetPoint" />
          </mxGeometry>
        </mxCell>
        <mxCell id="VxdRvXpQJMo_E4zNavWg-24" value="" style="endArrow=none;html=1;rounded=0;exitX=1;exitY=0.5;exitDx=0;exitDy=0;entryX=0;entryY=0.5;entryDx=0;entryDy=0;" parent="WIyWlLk6GJQsqaUBKTNV-1" target="VxdRvXpQJMo_E4zNavWg-3" edge="1">
          <mxGeometry width="50" height="50" relative="1" as="geometry">
            <mxPoint x="-540" y="515" as="sourcePoint" />
            <mxPoint x="-500" y="515" as="targetPoint" />
          </mxGeometry>
        </mxCell>
        <mxCell id="VxdRvXpQJMo_E4zNavWg-30" value="" style="endArrow=none;html=1;rounded=0;entryX=0.5;entryY=1;entryDx=0;entryDy=0;" parent="WIyWlLk6GJQsqaUBKTNV-1" target="VxdRvXpQJMo_E4zNavWg-3" edge="1">
          <mxGeometry width="50" height="50" relative="1" as="geometry">
            <mxPoint x="-405" y="590" as="sourcePoint" />
            <mxPoint x="-280" y="575" as="targetPoint" />
          </mxGeometry>
        </mxCell>
        <mxCell id="VxdRvXpQJMo_E4zNavWg-53" value="" style="endArrow=none;html=1;rounded=0;entryX=0;entryY=0.5;entryDx=0;entryDy=0;exitX=1;exitY=0.5;exitDx=0;exitDy=0;" parent="WIyWlLk6GJQsqaUBKTNV-1" edge="1">
          <mxGeometry width="50" height="50" relative="1" as="geometry">
            <mxPoint x="150" y="625" as="sourcePoint" />
            <mxPoint x="175" y="625" as="targetPoint" />
          </mxGeometry>
        </mxCell>
        <mxCell id="VxdRvXpQJMo_E4zNavWg-55" value="&lt;span style=&quot;background-color: rgb(255, 242, 204);&quot;&gt;&lt;u&gt;&lt;span style=&quot;-webkit-user-drag: none; -webkit-tap-highlight-color: transparent; margin: 0px; padding: 0px; user-select: text; text-align: justify; white-space-collapse: preserve; font-size: 12pt; line-height: 19.425px; font-family: &amp;quot;Times New Roman&amp;quot;, &amp;quot;Times New Roman_EmbeddedFont&amp;quot;, &amp;quot;Times New Roman_MSFontService&amp;quot;, serif; font-variant-ligatures: none !important;&quot; class=&quot;TextRun Underlined UnderlinedGateOff SCXW181013911 BCX0&quot; lang=&quot;EL-GR&quot; data-contrast=&quot;auto&quot;&gt;&lt;span style=&quot;-webkit-user-drag: none; -webkit-tap-highlight-color: transparent; margin: 0px; padding: 0px; user-select: text;&quot; class=&quot;NormalTextRun SCXW181013911 BCX0&quot;&gt;Notification&lt;/span&gt;&lt;span style=&quot;-webkit-user-drag: none; -webkit-tap-highlight-color: transparent; margin: 0px; padding: 0px; user-select: text;&quot; class=&quot;NormalTextRun SCXW181013911 BCX0&quot;&gt;ID&lt;/span&gt;&lt;span style=&quot;-webkit-user-drag: none; -webkit-tap-highlight-color: transparent; margin: 0px; padding: 0px; user-select: text;&quot; class=&quot;NormalTextRun SCXW181013911 BCX0&quot;&gt; &lt;/span&gt;&lt;/span&gt;&lt;span style=&quot;-webkit-user-drag: none; -webkit-tap-highlight-color: transparent; margin: 0px; padding: 0px; user-select: text; text-align: justify; white-space-collapse: preserve; font-size: 12pt; line-height: 19.425px; font-family: &amp;quot;Times New Roman&amp;quot;, &amp;quot;Times New Roman_EmbeddedFont&amp;quot;, &amp;quot;Times New Roman_MSFontService&amp;quot;, serif;&quot; data-ccp-props=&quot;{}&quot; class=&quot;EOP SCXW181013911 BCX0&quot;&gt;&amp;nbsp;&lt;/span&gt;&lt;/u&gt;&lt;/span&gt;" style="ellipse;whiteSpace=wrap;html=1;fillColor=#fff2cc;strokeColor=#d6b656;" parent="WIyWlLk6GJQsqaUBKTNV-1" vertex="1">
          <mxGeometry x="-820" y="420" width="110" height="40" as="geometry" />
        </mxCell>
        <mxCell id="VxdRvXpQJMo_E4zNavWg-56" value="" style="endArrow=none;html=1;rounded=0;entryX=0.5;entryY=0;entryDx=0;entryDy=0;exitX=1;exitY=1;exitDx=0;exitDy=0;" parent="WIyWlLk6GJQsqaUBKTNV-1" edge="1">
          <mxGeometry width="50" height="50" relative="1" as="geometry">
            <mxPoint x="-756.4248696322079" y="459.25602644027117" as="sourcePoint" />
            <mxPoint x="-739" y="495" as="targetPoint" />
          </mxGeometry>
        </mxCell>
        <mxCell id="VxdRvXpQJMo_E4zNavWg-60" value="&lt;span style=&quot;background-color: rgb(255, 242, 204);&quot;&gt;&lt;u&gt;&lt;span style=&quot;-webkit-user-drag: none; -webkit-tap-highlight-color: transparent; margin: 0px; padding: 0px; user-select: text; text-align: justify; white-space-collapse: preserve; font-size: 12pt; line-height: 19.425px; font-family: &amp;quot;Times New Roman&amp;quot;, &amp;quot;Times New Roman_EmbeddedFont&amp;quot;, &amp;quot;Times New Roman_MSFontService&amp;quot;, serif; font-variant-ligatures: none !important;&quot; class=&quot;TextRun Underlined UnderlinedGateOff SCXW181013911 BCX0&quot; lang=&quot;EL-GR&quot; data-contrast=&quot;auto&quot;&gt;&lt;span style=&quot;-webkit-user-drag: none; -webkit-tap-highlight-color: transparent; margin: 0px; padding: 0px; user-select: text;&quot; class=&quot;NormalTextRun SCXW181013911 BCX0&quot;&gt;Review&lt;/span&gt;&lt;span style=&quot;-webkit-user-drag: none; -webkit-tap-highlight-color: transparent; margin: 0px; padding: 0px; user-select: text;&quot; class=&quot;NormalTextRun SCXW181013911 BCX0&quot;&gt;ID&lt;/span&gt;&lt;span style=&quot;-webkit-user-drag: none; -webkit-tap-highlight-color: transparent; margin: 0px; padding: 0px; user-select: text;&quot; class=&quot;NormalTextRun SCXW181013911 BCX0&quot;&gt; &lt;/span&gt;&lt;/span&gt;&lt;span style=&quot;-webkit-user-drag: none; -webkit-tap-highlight-color: transparent; margin: 0px; padding: 0px; user-select: text; text-align: justify; white-space-collapse: preserve; font-size: 12pt; line-height: 19.425px; font-family: &amp;quot;Times New Roman&amp;quot;, &amp;quot;Times New Roman_EmbeddedFont&amp;quot;, &amp;quot;Times New Roman_MSFontService&amp;quot;, serif;&quot; data-ccp-props=&quot;{}&quot; class=&quot;EOP SCXW181013911 BCX0&quot;&gt;&amp;nbsp;&lt;/span&gt;&lt;/u&gt;&lt;/span&gt;" style="ellipse;whiteSpace=wrap;html=1;fillColor=#fff2cc;strokeColor=#d6b656;" parent="WIyWlLk6GJQsqaUBKTNV-1" vertex="1">
          <mxGeometry x="-600" y="280" width="90" height="50" as="geometry" />
        </mxCell>
        <mxCell id="VxdRvXpQJMo_E4zNavWg-61" value="&lt;span style=&quot;background-color: rgb(255, 242, 204);&quot;&gt;&lt;u&gt;&lt;span style=&quot;-webkit-user-drag: none; -webkit-tap-highlight-color: transparent; margin: 0px; padding: 0px; user-select: text; text-align: justify; white-space-collapse: preserve; font-size: 12pt; line-height: 19.425px; font-family: &amp;quot;Times New Roman&amp;quot;, &amp;quot;Times New Roman_EmbeddedFont&amp;quot;, &amp;quot;Times New Roman_MSFontService&amp;quot;, serif; font-variant-ligatures: none !important;&quot; class=&quot;TextRun Underlined UnderlinedGateOff SCXW181013911 BCX0&quot; lang=&quot;EL-GR&quot; data-contrast=&quot;auto&quot;&gt;&lt;span style=&quot;-webkit-user-drag: none; -webkit-tap-highlight-color: transparent; margin: 0px; padding: 0px; user-select: text;&quot; class=&quot;NormalTextRun SCXW181013911 BCX0&quot;&gt;Customer&lt;/span&gt;&lt;span style=&quot;-webkit-user-drag: none; -webkit-tap-highlight-color: transparent; margin: 0px; padding: 0px; user-select: text;&quot; class=&quot;NormalTextRun SCXW181013911 BCX0&quot;&gt;ID&lt;/span&gt;&lt;span style=&quot;-webkit-user-drag: none; -webkit-tap-highlight-color: transparent; margin: 0px; padding: 0px; user-select: text;&quot; class=&quot;NormalTextRun SCXW181013911 BCX0&quot;&gt; &lt;/span&gt;&lt;/span&gt;&lt;span style=&quot;-webkit-user-drag: none; -webkit-tap-highlight-color: transparent; margin: 0px; padding: 0px; user-select: text; text-align: justify; white-space-collapse: preserve; font-size: 12pt; line-height: 19.425px; font-family: &amp;quot;Times New Roman&amp;quot;, &amp;quot;Times New Roman_EmbeddedFont&amp;quot;, &amp;quot;Times New Roman_MSFontService&amp;quot;, serif;&quot; data-ccp-props=&quot;{}&quot; class=&quot;EOP SCXW181013911 BCX0&quot;&gt;&amp;nbsp;&lt;/span&gt;&lt;/u&gt;&lt;/span&gt;" style="ellipse;whiteSpace=wrap;html=1;fillColor=#fff2cc;strokeColor=#d6b656;" parent="WIyWlLk6GJQsqaUBKTNV-1" vertex="1">
          <mxGeometry x="-625" y="430" width="110" height="40" as="geometry" />
        </mxCell>
        <mxCell id="VxdRvXpQJMo_E4zNavWg-62" value="&lt;u&gt;&lt;span style=&quot;background-color: rgb(255, 242, 204);&quot;&gt;&lt;span style=&quot;-webkit-user-drag: none; -webkit-tap-highlight-color: transparent; margin: 0px; padding: 0px; user-select: text; text-align: justify; white-space-collapse: preserve; font-size: 12pt; line-height: 19.425px; font-family: &amp;quot;Times New Roman&amp;quot;, &amp;quot;Times New Roman_EmbeddedFont&amp;quot;, &amp;quot;Times New Roman_MSFontService&amp;quot;, serif; font-variant-ligatures: none !important;&quot; class=&quot;TextRun Underlined UnderlinedGateOff SCXW181013911 BCX0&quot; lang=&quot;EL-GR&quot; data-contrast=&quot;auto&quot;&gt;&lt;span style=&quot;-webkit-user-drag: none; -webkit-tap-highlight-color: transparent; margin: 0px; padding: 0px; user-select: text;&quot; class=&quot;NormalTextRun SCXW181013911 BCX0&quot;&gt;ReservationID&lt;/span&gt;&lt;/span&gt;&lt;/span&gt;&lt;span style=&quot;white-space-collapse: preserve; -webkit-user-drag: none; -webkit-tap-highlight-color: transparent; margin: 0px; padding: 0px; user-select: text; text-align: justify; font-size: 12pt; line-height: 19.425px; font-family: &amp;quot;Times New Roman&amp;quot;, &amp;quot;Times New Roman_EmbeddedFont&amp;quot;, &amp;quot;Times New Roman_MSFontService&amp;quot;, serif; font-variant-ligatures: none !important;&quot; class=&quot;TextRun Underlined UnderlinedGateOff SCXW181013911 BCX0&quot; lang=&quot;EL-GR&quot; data-contrast=&quot;auto&quot;&gt;&lt;span style=&quot;-webkit-user-drag: none; -webkit-tap-highlight-color: transparent; margin: 0px; padding: 0px; user-select: text;&quot; class=&quot;NormalTextRun SCXW181013911 BCX0&quot;&gt; &lt;/span&gt;&lt;/span&gt;&lt;span style=&quot;white-space-collapse: preserve; -webkit-user-drag: none; -webkit-tap-highlight-color: transparent; margin: 0px; padding: 0px; user-select: text; text-align: justify; font-size: 12pt; line-height: 19.425px; font-family: &amp;quot;Times New Roman&amp;quot;, &amp;quot;Times New Roman_EmbeddedFont&amp;quot;, &amp;quot;Times New Roman_MSFontService&amp;quot;, serif;&quot; data-ccp-props=&quot;{}&quot; class=&quot;EOP SCXW181013911 BCX0&quot;&gt;&amp;nbsp;&lt;/span&gt;&lt;/u&gt;" style="ellipse;whiteSpace=wrap;html=1;fillColor=#fff2cc;strokeColor=#d6b656;" parent="WIyWlLk6GJQsqaUBKTNV-1" vertex="1">
          <mxGeometry x="-22" y="437" width="120" height="40" as="geometry" />
        </mxCell>
        <mxCell id="VxdRvXpQJMo_E4zNavWg-63" value="&lt;div style=&quot;text-align: justify;&quot;&gt;&lt;font face=&quot;Times New Roman, Times New Roman_EmbeddedFont, Times New Roman_MSFontService, serif&quot;&gt;&lt;span style=&quot;font-size: 16px; font-variant-ligatures: none; white-space-collapse: preserve; background-color: rgb(255, 242, 204);&quot;&gt;&lt;u&gt;WaitlistID&lt;/u&gt;&lt;/span&gt;&lt;/font&gt;&lt;/div&gt;" style="ellipse;whiteSpace=wrap;html=1;fillColor=#fff2cc;strokeColor=#d6b656;" parent="WIyWlLk6GJQsqaUBKTNV-1" vertex="1">
          <mxGeometry x="-612" y="897.5" width="120" height="45" as="geometry" />
        </mxCell>
        <mxCell id="VxdRvXpQJMo_E4zNavWg-64" value="&lt;div style=&quot;text-align: justify;&quot;&gt;&lt;font face=&quot;Times New Roman, Times New Roman_EmbeddedFont, Times New Roman_MSFontService, serif&quot;&gt;&lt;span style=&quot;font-size: 16px; font-variant-ligatures: none; white-space-collapse: preserve; background-color: rgb(255, 242, 204);&quot;&gt;&lt;u&gt;PaymentID&lt;/u&gt;&lt;/span&gt;&lt;/font&gt;&lt;/div&gt;" style="ellipse;whiteSpace=wrap;html=1;fillColor=#fff2cc;strokeColor=#d6b656;" parent="WIyWlLk6GJQsqaUBKTNV-1" vertex="1">
          <mxGeometry x="-383" y="715" width="103" height="35" as="geometry" />
        </mxCell>
        <mxCell id="VxdRvXpQJMo_E4zNavWg-66" value="&lt;div style=&quot;text-align: justify;&quot;&gt;&lt;font face=&quot;Times New Roman, Times New Roman_EmbeddedFont, Times New Roman_MSFontService, serif&quot;&gt;&lt;span style=&quot;font-size: 16px; font-variant-ligatures: none; white-space-collapse: preserve; background-color: rgb(255, 242, 204);&quot;&gt;&lt;u&gt;PreOrderID&lt;/u&gt;&lt;/span&gt;&lt;/font&gt;&lt;/div&gt;" style="ellipse;whiteSpace=wrap;html=1;fillColor=#fff2cc;strokeColor=#d6b656;" parent="WIyWlLk6GJQsqaUBKTNV-1" vertex="1">
          <mxGeometry y="755" width="110" height="30" as="geometry" />
        </mxCell>
        <mxCell id="VxdRvXpQJMo_E4zNavWg-67" value="&lt;div style=&quot;text-align: justify;&quot;&gt;&lt;font face=&quot;Times New Roman, Times New Roman_EmbeddedFont, Times New Roman_MSFontService, serif&quot;&gt;&lt;span style=&quot;font-size: 16px; font-variant-ligatures: none; white-space-collapse: preserve; background-color: rgb(255, 242, 204);&quot;&gt;&lt;u&gt;TableID&lt;/u&gt;&lt;/span&gt;&lt;/font&gt;&lt;/div&gt;" style="ellipse;whiteSpace=wrap;html=1;fillColor=#fff2cc;strokeColor=#d6b656;" parent="WIyWlLk6GJQsqaUBKTNV-1" vertex="1">
          <mxGeometry x="310" y="860" width="80" height="30" as="geometry" />
        </mxCell>
        <mxCell id="VxdRvXpQJMo_E4zNavWg-68" value="&lt;u&gt;RestaurantAdministratorID&lt;span style=&quot;background-color: rgb(255, 242, 204);&quot;&gt;&lt;span style=&quot;-webkit-user-drag: none; -webkit-tap-highlight-color: transparent; margin: 0px; padding: 0px; user-select: text; text-align: justify; white-space-collapse: preserve; font-size: 12pt; line-height: 19.425px; font-family: &amp;quot;Times New Roman&amp;quot;, &amp;quot;Times New Roman_EmbeddedFont&amp;quot;, &amp;quot;Times New Roman_MSFontService&amp;quot;, serif; font-variant-ligatures: none !important;&quot; class=&quot;TextRun Underlined UnderlinedGateOff SCXW181013911 BCX0&quot; lang=&quot;EL-GR&quot; data-contrast=&quot;auto&quot;&gt;&lt;span style=&quot;-webkit-user-drag: none; -webkit-tap-highlight-color: transparent; margin: 0px; padding: 0px; user-select: text;&quot; class=&quot;NormalTextRun SCXW181013911 BCX0&quot;&gt; &lt;/span&gt;&lt;/span&gt;&lt;span style=&quot;-webkit-user-drag: none; -webkit-tap-highlight-color: transparent; margin: 0px; padding: 0px; user-select: text; text-align: justify; white-space-collapse: preserve; font-size: 12pt; line-height: 19.425px; font-family: &amp;quot;Times New Roman&amp;quot;, &amp;quot;Times New Roman_EmbeddedFont&amp;quot;, &amp;quot;Times New Roman_MSFontService&amp;quot;, serif;&quot; data-ccp-props=&quot;{}&quot; class=&quot;EOP SCXW181013911 BCX0&quot;&gt;&amp;nbsp;&lt;/span&gt;&lt;/span&gt;&lt;/u&gt;" style="ellipse;whiteSpace=wrap;html=1;fillColor=#fff2cc;strokeColor=#d6b656;" parent="WIyWlLk6GJQsqaUBKTNV-1" vertex="1">
          <mxGeometry x="51" y="340" width="192.5" height="40" as="geometry" />
        </mxCell>
        <mxCell id="VxdRvXpQJMo_E4zNavWg-69" value="&lt;div style=&quot;text-align: justify;&quot;&gt;&lt;font face=&quot;Times New Roman, Times New Roman_EmbeddedFont, Times New Roman_MSFontService, serif&quot;&gt;&lt;span style=&quot;font-size: 16px; font-variant-ligatures: none; white-space-collapse: preserve; background-color: rgb(255, 242, 204);&quot;&gt;&lt;u&gt;RestaurantID&lt;/u&gt;&lt;/span&gt;&lt;/font&gt;&lt;/div&gt;" style="ellipse;whiteSpace=wrap;html=1;fillColor=#fff2cc;strokeColor=#d6b656;" parent="WIyWlLk6GJQsqaUBKTNV-1" vertex="1">
          <mxGeometry x="260" y="725" width="110" height="35" as="geometry" />
        </mxCell>
        <mxCell id="VxdRvXpQJMo_E4zNavWg-70" value="" style="endArrow=none;html=1;rounded=0;entryX=0;entryY=0;entryDx=0;entryDy=0;exitX=0.782;exitY=0.9;exitDx=0;exitDy=0;exitPerimeter=0;" parent="WIyWlLk6GJQsqaUBKTNV-1" source="VxdRvXpQJMo_E4zNavWg-61" target="VxdRvXpQJMo_E4zNavWg-3" edge="1">
          <mxGeometry width="50" height="50" relative="1" as="geometry">
            <mxPoint x="-300" y="625" as="sourcePoint" />
            <mxPoint x="-500" y="495" as="targetPoint" />
          </mxGeometry>
        </mxCell>
        <mxCell id="VxdRvXpQJMo_E4zNavWg-71" value="" style="endArrow=none;html=1;rounded=0;entryX=0;entryY=1;entryDx=0;entryDy=0;exitX=0.5;exitY=0;exitDx=0;exitDy=0;" parent="WIyWlLk6GJQsqaUBKTNV-1" source="VxdRvXpQJMo_E4zNavWg-64" edge="1">
          <mxGeometry width="50" height="50" relative="1" as="geometry">
            <mxPoint x="-200" y="625" as="sourcePoint" />
            <mxPoint x="-300" y="700" as="targetPoint" />
          </mxGeometry>
        </mxCell>
        <mxCell id="VxdRvXpQJMo_E4zNavWg-72" value="" style="endArrow=none;html=1;rounded=0;entryX=1;entryY=0.5;entryDx=0;entryDy=0;exitX=0;exitY=0.5;exitDx=0;exitDy=0;" parent="WIyWlLk6GJQsqaUBKTNV-1" target="VxdRvXpQJMo_E4zNavWg-60" edge="1">
          <mxGeometry width="50" height="50" relative="1" as="geometry">
            <mxPoint x="-470" y="305" as="sourcePoint" />
            <mxPoint x="-150" y="575" as="targetPoint" />
          </mxGeometry>
        </mxCell>
        <mxCell id="VxdRvXpQJMo_E4zNavWg-73" value="" style="endArrow=none;html=1;rounded=0;entryX=0;entryY=0.75;entryDx=0;entryDy=0;exitX=0.773;exitY=0.033;exitDx=0;exitDy=0;exitPerimeter=0;" parent="WIyWlLk6GJQsqaUBKTNV-1" source="VxdRvXpQJMo_E4zNavWg-63" edge="1">
          <mxGeometry width="50" height="50" relative="1" as="geometry">
            <mxPoint x="-300" y="625" as="sourcePoint" />
            <mxPoint x="-453" y="838.75" as="targetPoint" />
          </mxGeometry>
        </mxCell>
        <mxCell id="VxdRvXpQJMo_E4zNavWg-74" value="" style="endArrow=none;html=1;rounded=0;entryX=0.456;entryY=0.042;entryDx=0;entryDy=0;exitX=1;exitY=1;exitDx=0;exitDy=0;entryPerimeter=0;" parent="WIyWlLk6GJQsqaUBKTNV-1" source="VxdRvXpQJMo_E4zNavWg-68" edge="1">
          <mxGeometry width="50" height="50" relative="1" as="geometry">
            <mxPoint x="-200" y="625" as="sourcePoint" />
            <mxPoint x="238.85600000000022" y="396.68000000000006" as="targetPoint" />
          </mxGeometry>
        </mxCell>
        <mxCell id="VxdRvXpQJMo_E4zNavWg-76" value="" style="endArrow=none;html=1;rounded=0;entryX=0.5;entryY=1;entryDx=0;entryDy=0;exitX=0.75;exitY=0;exitDx=0;exitDy=0;" parent="WIyWlLk6GJQsqaUBKTNV-1" target="VxdRvXpQJMo_E4zNavWg-62" edge="1">
          <mxGeometry width="50" height="50" relative="1" as="geometry">
            <mxPoint x="7.5" y="495" as="sourcePoint" />
            <mxPoint x="-150" y="575" as="targetPoint" />
          </mxGeometry>
        </mxCell>
        <mxCell id="VxdRvXpQJMo_E4zNavWg-77" value="" style="endArrow=none;html=1;rounded=0;entryX=0;entryY=0;entryDx=0;entryDy=0;exitX=0.75;exitY=1;exitDx=0;exitDy=0;" parent="WIyWlLk6GJQsqaUBKTNV-1" target="VxdRvXpQJMo_E4zNavWg-69" edge="1">
          <mxGeometry width="50" height="50" relative="1" as="geometry">
            <mxPoint x="272.5" y="645" as="sourcePoint" />
            <mxPoint x="-150" y="575" as="targetPoint" />
          </mxGeometry>
        </mxCell>
        <mxCell id="VxdRvXpQJMo_E4zNavWg-79" value="" style="endArrow=none;html=1;rounded=0;entryX=0.987;entryY=0.354;entryDx=0;entryDy=0;exitX=0.256;exitY=0.9;exitDx=0;exitDy=0;exitPerimeter=0;entryPerimeter=0;" parent="WIyWlLk6GJQsqaUBKTNV-1" source="VxdRvXpQJMo_E4zNavWg-67" edge="1">
          <mxGeometry width="50" height="50" relative="1" as="geometry">
            <mxPoint x="-200" y="625" as="sourcePoint" />
            <mxPoint x="288.6999999999998" y="911.6599999999999" as="targetPoint" />
          </mxGeometry>
        </mxCell>
        <mxCell id="VxdRvXpQJMo_E4zNavWg-80" value="" style="endArrow=none;html=1;rounded=0;entryX=1;entryY=1;entryDx=0;entryDy=0;exitX=0.5;exitY=0;exitDx=0;exitDy=0;" parent="WIyWlLk6GJQsqaUBKTNV-1" source="VxdRvXpQJMo_E4zNavWg-66" edge="1">
          <mxGeometry width="50" height="50" relative="1" as="geometry">
            <mxPoint x="-200" y="625" as="sourcePoint" />
            <mxPoint x="40" y="725" as="targetPoint" />
          </mxGeometry>
        </mxCell>
        <mxCell id="VxdRvXpQJMo_E4zNavWg-81" value="&lt;div style=&quot;text-align: justify;&quot;&gt;&lt;font face=&quot;Times New Roman, Times New Roman_EmbeddedFont, Times New Roman_MSFontService, serif&quot;&gt;&lt;span style=&quot;font-size: 16px; font-variant-ligatures: none; white-space-collapse: preserve; background-color: rgb(255, 242, 204);&quot;&gt;Address&lt;/span&gt;&lt;/font&gt;&lt;/div&gt;" style="ellipse;whiteSpace=wrap;html=1;fillColor=#fff2cc;strokeColor=#d6b656;" parent="WIyWlLk6GJQsqaUBKTNV-1" vertex="1">
          <mxGeometry x="310" y="480" width="110" height="35" as="geometry" />
        </mxCell>
        <mxCell id="VxdRvXpQJMo_E4zNavWg-83" value="&lt;div style=&quot;text-align: justify;&quot;&gt;&lt;font face=&quot;Times New Roman, Times New Roman_EmbeddedFont, Times New Roman_MSFontService, serif&quot;&gt;&lt;span style=&quot;font-size: 16px; font-variant-ligatures: none; white-space-collapse: preserve; background-color: rgb(255, 242, 204);&quot;&gt;Rating&lt;/span&gt;&lt;/font&gt;&lt;/div&gt;" style="ellipse;whiteSpace=wrap;html=1;fillColor=#fff2cc;strokeColor=#d6b656;" parent="WIyWlLk6GJQsqaUBKTNV-1" vertex="1">
          <mxGeometry x="483" y="560" width="110" height="35" as="geometry" />
        </mxCell>
        <mxCell id="VxdRvXpQJMo_E4zNavWg-84" value="&lt;div style=&quot;text-align: justify;&quot;&gt;&lt;font face=&quot;Times New Roman, Times New Roman_EmbeddedFont, Times New Roman_MSFontService, serif&quot;&gt;&lt;span style=&quot;font-size: 16px; font-variant-ligatures: none; white-space-collapse: preserve; background-color: rgb(255, 242, 204);&quot;&gt;OpeningHours&lt;/span&gt;&lt;/font&gt;&lt;/div&gt;" style="ellipse;whiteSpace=wrap;html=1;fillColor=#fff2cc;strokeColor=#d6b656;" parent="WIyWlLk6GJQsqaUBKTNV-1" vertex="1">
          <mxGeometry x="422" y="685" width="110" height="35" as="geometry" />
        </mxCell>
        <mxCell id="VxdRvXpQJMo_E4zNavWg-91" value="" style="endArrow=none;html=1;rounded=0;entryX=0.209;entryY=0.943;entryDx=0;entryDy=0;entryPerimeter=0;" parent="WIyWlLk6GJQsqaUBKTNV-1" target="VxdRvXpQJMo_E4zNavWg-81" edge="1">
          <mxGeometry width="50" height="50" relative="1" as="geometry">
            <mxPoint x="260" y="606" as="sourcePoint" />
            <mxPoint x="230" y="590" as="targetPoint" />
          </mxGeometry>
        </mxCell>
        <mxCell id="VxdRvXpQJMo_E4zNavWg-92" value="" style="endArrow=none;html=1;rounded=0;entryX=0;entryY=0.5;entryDx=0;entryDy=0;exitX=1;exitY=0;exitDx=0;exitDy=0;" parent="WIyWlLk6GJQsqaUBKTNV-1" target="1hMTyV5PMrLRTY3RI_EV-22" edge="1">
          <mxGeometry width="50" height="50" relative="1" as="geometry">
            <mxPoint x="305" y="605" as="sourcePoint" />
            <mxPoint x="474.9999999999959" y="508.5" as="targetPoint" />
          </mxGeometry>
        </mxCell>
        <mxCell id="VxdRvXpQJMo_E4zNavWg-93" value="" style="endArrow=none;html=1;rounded=0;entryX=0;entryY=0.5;entryDx=0;entryDy=0;exitX=1;exitY=0.25;exitDx=0;exitDy=0;" parent="WIyWlLk6GJQsqaUBKTNV-1" target="VxdRvXpQJMo_E4zNavWg-83" edge="1">
          <mxGeometry width="50" height="50" relative="1" as="geometry">
            <mxPoint x="305" y="615" as="sourcePoint" />
            <mxPoint x="230" y="590" as="targetPoint" />
          </mxGeometry>
        </mxCell>
        <mxCell id="VxdRvXpQJMo_E4zNavWg-94" value="" style="endArrow=none;html=1;rounded=0;entryX=0;entryY=0.5;entryDx=0;entryDy=0;exitX=1;exitY=0.75;exitDx=0;exitDy=0;" parent="WIyWlLk6GJQsqaUBKTNV-1" target="VxdRvXpQJMo_E4zNavWg-84" edge="1">
          <mxGeometry width="50" height="50" relative="1" as="geometry">
            <mxPoint x="305" y="635" as="sourcePoint" />
            <mxPoint x="230" y="590" as="targetPoint" />
          </mxGeometry>
        </mxCell>
        <mxCell id="VxdRvXpQJMo_E4zNavWg-95" value="&lt;div style=&quot;text-align: justify;&quot;&gt;&lt;font face=&quot;Times New Roman, Times New Roman_EmbeddedFont, Times New Roman_MSFontService, serif&quot;&gt;&lt;span style=&quot;font-size: 16px; font-variant-ligatures: none; white-space-collapse: preserve; background-color: rgb(255, 242, 204);&quot;&gt;NumOfTables&lt;/span&gt;&lt;/font&gt;&lt;/div&gt;" style="ellipse;whiteSpace=wrap;html=1;fillColor=#fff2cc;strokeColor=#d6b656;" parent="WIyWlLk6GJQsqaUBKTNV-1" vertex="1">
          <mxGeometry x="377" y="767" width="110" height="35" as="geometry" />
        </mxCell>
        <mxCell id="VxdRvXpQJMo_E4zNavWg-96" value="" style="endArrow=none;html=1;rounded=0;entryX=0;entryY=0;entryDx=0;entryDy=0;exitX=1;exitY=1;exitDx=0;exitDy=0;" parent="WIyWlLk6GJQsqaUBKTNV-1" target="VxdRvXpQJMo_E4zNavWg-95" edge="1">
          <mxGeometry width="50" height="50" relative="1" as="geometry">
            <mxPoint x="305" y="645" as="sourcePoint" />
            <mxPoint x="230" y="590" as="targetPoint" />
          </mxGeometry>
        </mxCell>
        <mxCell id="VxdRvXpQJMo_E4zNavWg-97" value="&lt;div style=&quot;text-align: justify;&quot;&gt;&lt;font face=&quot;Times New Roman, Times New Roman_EmbeddedFont, Times New Roman_MSFontService, serif&quot;&gt;&lt;span style=&quot;font-size: 16px; font-variant-ligatures: none; white-space-collapse: preserve; background-color: rgb(255, 242, 204);&quot;&gt;Name&lt;/span&gt;&lt;/font&gt;&lt;/div&gt;" style="ellipse;whiteSpace=wrap;html=1;fillColor=#fff2cc;strokeColor=#d6b656;" parent="WIyWlLk6GJQsqaUBKTNV-1" vertex="1">
          <mxGeometry x="-520" y="410" width="70" height="35" as="geometry" />
        </mxCell>
        <mxCell id="VxdRvXpQJMo_E4zNavWg-98" value="&lt;div style=&quot;text-align: justify;&quot;&gt;&lt;font face=&quot;Times New Roman, Times New Roman_EmbeddedFont, Times New Roman_MSFontService, serif&quot;&gt;&lt;span style=&quot;font-size: 16px; font-variant-ligatures: none; white-space-collapse: preserve; background-color: rgb(255, 242, 204);&quot;&gt;Email&lt;/span&gt;&lt;/font&gt;&lt;/div&gt;" style="ellipse;whiteSpace=wrap;html=1;fillColor=#fff2cc;strokeColor=#d6b656;" parent="WIyWlLk6GJQsqaUBKTNV-1" vertex="1">
          <mxGeometry x="-383" y="410" width="73" height="35" as="geometry" />
        </mxCell>
        <mxCell id="VxdRvXpQJMo_E4zNavWg-100" value="&lt;div style=&quot;text-align: justify;&quot;&gt;&lt;font face=&quot;Times New Roman, Times New Roman_EmbeddedFont, Times New Roman_MSFontService, serif&quot;&gt;&lt;span style=&quot;font-size: 16px; font-variant-ligatures: none; white-space-collapse: preserve; background-color: rgb(255, 242, 204);&quot;&gt;Phone&lt;/span&gt;&lt;/font&gt;&lt;/div&gt;" style="ellipse;whiteSpace=wrap;html=1;fillColor=#fff2cc;strokeColor=#d6b656;" parent="WIyWlLk6GJQsqaUBKTNV-1" vertex="1">
          <mxGeometry x="-350" y="445" width="73" height="35" as="geometry" />
        </mxCell>
        <mxCell id="VxdRvXpQJMo_E4zNavWg-101" value="" style="endArrow=none;html=1;rounded=0;entryX=0.745;entryY=0.986;entryDx=0;entryDy=0;entryPerimeter=0;exitX=0.25;exitY=0;exitDx=0;exitDy=0;" parent="WIyWlLk6GJQsqaUBKTNV-1" source="VxdRvXpQJMo_E4zNavWg-3" target="VxdRvXpQJMo_E4zNavWg-97" edge="1">
          <mxGeometry width="50" height="50" relative="1" as="geometry">
            <mxPoint x="-430" y="570" as="sourcePoint" />
            <mxPoint x="-380" y="520" as="targetPoint" />
          </mxGeometry>
        </mxCell>
        <mxCell id="VxdRvXpQJMo_E4zNavWg-102" value="" style="endArrow=none;html=1;rounded=0;entryX=0.5;entryY=1;entryDx=0;entryDy=0;exitX=0.5;exitY=0;exitDx=0;exitDy=0;" parent="WIyWlLk6GJQsqaUBKTNV-1" source="VxdRvXpQJMo_E4zNavWg-3" target="VxdRvXpQJMo_E4zNavWg-98" edge="1">
          <mxGeometry width="50" height="50" relative="1" as="geometry">
            <mxPoint x="-430" y="570" as="sourcePoint" />
            <mxPoint x="-380" y="520" as="targetPoint" />
          </mxGeometry>
        </mxCell>
        <mxCell id="VxdRvXpQJMo_E4zNavWg-103" value="" style="endArrow=none;html=1;rounded=0;entryX=0;entryY=1;entryDx=0;entryDy=0;exitX=0.75;exitY=0;exitDx=0;exitDy=0;" parent="WIyWlLk6GJQsqaUBKTNV-1" source="VxdRvXpQJMo_E4zNavWg-3" target="VxdRvXpQJMo_E4zNavWg-100" edge="1">
          <mxGeometry width="50" height="50" relative="1" as="geometry">
            <mxPoint x="-430" y="570" as="sourcePoint" />
            <mxPoint x="-380" y="520" as="targetPoint" />
            <Array as="points" />
          </mxGeometry>
        </mxCell>
        <mxCell id="VxdRvXpQJMo_E4zNavWg-104" value="&lt;div style=&quot;text-align: justify;&quot;&gt;&lt;font face=&quot;Times New Roman, Times New Roman_EmbeddedFont, Times New Roman_MSFontService, serif&quot;&gt;&lt;span style=&quot;font-size: 16px; font-variant-ligatures: none; white-space-collapse: preserve; background-color: rgb(255, 242, 204);&quot;&gt;Status&lt;/span&gt;&lt;/font&gt;&lt;/div&gt;" style="ellipse;whiteSpace=wrap;html=1;fillColor=#fff2cc;strokeColor=#d6b656;" parent="WIyWlLk6GJQsqaUBKTNV-1" vertex="1">
          <mxGeometry x="110" y="960" width="73" height="35" as="geometry" />
        </mxCell>
        <mxCell id="VxdRvXpQJMo_E4zNavWg-105" value="&lt;div style=&quot;text-align: justify;&quot;&gt;&lt;font face=&quot;Times New Roman, Times New Roman_EmbeddedFont, Times New Roman_MSFontService, serif&quot;&gt;&lt;span style=&quot;font-size: 16px; font-variant-ligatures: none; white-space-collapse: preserve; background-color: rgb(255, 242, 204);&quot;&gt;Capacity&lt;/span&gt;&lt;/font&gt;&lt;/div&gt;" style="ellipse;whiteSpace=wrap;html=1;fillColor=#fff2cc;strokeColor=#d6b656;" parent="WIyWlLk6GJQsqaUBKTNV-1" vertex="1">
          <mxGeometry x="203.5" y="960" width="73" height="35" as="geometry" />
        </mxCell>
        <mxCell id="VxdRvXpQJMo_E4zNavWg-106" value="&lt;div style=&quot;text-align: justify;&quot;&gt;&lt;font face=&quot;Times New Roman, Times New Roman_EmbeddedFont, Times New Roman_MSFontService, serif&quot;&gt;&lt;span style=&quot;font-size: 16px; font-variant-ligatures: none; white-space-collapse: preserve; background-color: rgb(255, 242, 204);&quot;&gt;Location&lt;/span&gt;&lt;/font&gt;&lt;/div&gt;" style="ellipse;whiteSpace=wrap;html=1;fillColor=#fff2cc;strokeColor=#d6b656;" parent="WIyWlLk6GJQsqaUBKTNV-1" vertex="1">
          <mxGeometry x="297" y="960" width="73" height="35" as="geometry" />
        </mxCell>
        <mxCell id="VxdRvXpQJMo_E4zNavWg-113" value="" style="endArrow=none;html=1;rounded=0;exitX=0.5;exitY=0;exitDx=0;exitDy=0;" parent="WIyWlLk6GJQsqaUBKTNV-1" source="VxdRvXpQJMo_E4zNavWg-104" edge="1">
          <mxGeometry width="50" height="50" relative="1" as="geometry">
            <mxPoint x="190" y="970" as="sourcePoint" />
            <mxPoint x="196" y="937.5000000000002" as="targetPoint" />
          </mxGeometry>
        </mxCell>
        <mxCell id="VxdRvXpQJMo_E4zNavWg-114" value="" style="endArrow=none;html=1;rounded=0;exitX=0.5;exitY=0;exitDx=0;exitDy=0;" parent="WIyWlLk6GJQsqaUBKTNV-1" source="VxdRvXpQJMo_E4zNavWg-105" edge="1">
          <mxGeometry width="50" height="50" relative="1" as="geometry">
            <mxPoint x="190" y="970" as="sourcePoint" />
            <mxPoint x="240" y="937.5000000000002" as="targetPoint" />
          </mxGeometry>
        </mxCell>
        <mxCell id="VxdRvXpQJMo_E4zNavWg-115" value="" style="endArrow=none;html=1;rounded=0;entryX=0.987;entryY=0.829;entryDx=0;entryDy=0;exitX=0;exitY=0;exitDx=0;exitDy=0;entryPerimeter=0;" parent="WIyWlLk6GJQsqaUBKTNV-1" source="VxdRvXpQJMo_E4zNavWg-106" edge="1">
          <mxGeometry width="50" height="50" relative="1" as="geometry">
            <mxPoint x="190" y="970" as="sourcePoint" />
            <mxPoint x="288.6999999999998" y="930.6600000000001" as="targetPoint" />
          </mxGeometry>
        </mxCell>
        <mxCell id="VxdRvXpQJMo_E4zNavWg-117" value="" style="endArrow=none;html=1;rounded=0;entryX=0.5;entryY=1;entryDx=0;entryDy=0;exitX=0.5;exitY=0;exitDx=0;exitDy=0;" parent="WIyWlLk6GJQsqaUBKTNV-1" source="VxdRvXpQJMo_E4zNavWg-3" target="KL3hr4kz5vJMiUH5sQq_-30" edge="1">
          <mxGeometry width="50" height="50" relative="1" as="geometry">
            <mxPoint x="-190" y="570" as="sourcePoint" />
            <mxPoint x="-405" y="435" as="targetPoint" />
          </mxGeometry>
        </mxCell>
        <mxCell id="VxdRvXpQJMo_E4zNavWg-120" value="&lt;div style=&quot;text-align: justify;&quot;&gt;&lt;font face=&quot;Times New Roman, Times New Roman_EmbeddedFont, Times New Roman_MSFontService, serif&quot;&gt;&lt;span style=&quot;font-size: 16px; font-variant-ligatures: none; white-space-collapse: preserve; background-color: rgb(255, 242, 204);&quot;&gt;Time&lt;/span&gt;&lt;/font&gt;&lt;/div&gt;" style="ellipse;whiteSpace=wrap;html=1;fillColor=#fff2cc;strokeColor=#d6b656;" parent="WIyWlLk6GJQsqaUBKTNV-1" vertex="1">
          <mxGeometry x="-60.5" y="395" width="73" height="35" as="geometry" />
        </mxCell>
        <mxCell id="VxdRvXpQJMo_E4zNavWg-121" value="&lt;div style=&quot;text-align: justify;&quot;&gt;&lt;font face=&quot;Times New Roman, Times New Roman_EmbeddedFont, Times New Roman_MSFontService, serif&quot;&gt;&lt;span style=&quot;font-size: 16px; font-variant-ligatures: none; white-space-collapse: preserve; background-color: rgb(255, 242, 204);&quot;&gt;Date&lt;/span&gt;&lt;/font&gt;&lt;/div&gt;" style="ellipse;whiteSpace=wrap;html=1;fillColor=#fff2cc;strokeColor=#d6b656;" parent="WIyWlLk6GJQsqaUBKTNV-1" vertex="1">
          <mxGeometry x="-137" y="397.25" width="73" height="35" as="geometry" />
        </mxCell>
        <mxCell id="VxdRvXpQJMo_E4zNavWg-122" value="&lt;div style=&quot;text-align: justify;&quot;&gt;&lt;font face=&quot;Times New Roman, Times New Roman_EmbeddedFont, Times New Roman_MSFontService, serif&quot;&gt;&lt;span style=&quot;font-size: 16px; font-variant-ligatures: none; white-space-collapse: preserve; background-color: rgb(255, 242, 204);&quot;&gt;NumberOfCustomers&lt;/span&gt;&lt;/font&gt;&lt;/div&gt;" style="ellipse;whiteSpace=wrap;html=1;fillColor=#fff2cc;strokeColor=#d6b656;" parent="WIyWlLk6GJQsqaUBKTNV-1" vertex="1">
          <mxGeometry x="-232" y="440" width="152" height="40" as="geometry" />
        </mxCell>
        <mxCell id="VxdRvXpQJMo_E4zNavWg-124" value="" style="endArrow=none;html=1;rounded=0;entryX=0;entryY=0;entryDx=0;entryDy=0;exitX=0.813;exitY=0.87;exitDx=0;exitDy=0;exitPerimeter=0;" parent="WIyWlLk6GJQsqaUBKTNV-1" source="VxdRvXpQJMo_E4zNavWg-122" edge="1">
          <mxGeometry width="50" height="50" relative="1" as="geometry">
            <mxPoint x="-50" y="590" as="sourcePoint" />
            <mxPoint x="-90" y="495" as="targetPoint" />
          </mxGeometry>
        </mxCell>
        <mxCell id="VxdRvXpQJMo_E4zNavWg-125" value="" style="endArrow=none;html=1;rounded=0;entryX=0.673;entryY=0.95;entryDx=0;entryDy=0;entryPerimeter=0;exitX=0.25;exitY=0;exitDx=0;exitDy=0;" parent="WIyWlLk6GJQsqaUBKTNV-1" target="VxdRvXpQJMo_E4zNavWg-121" edge="1">
          <mxGeometry width="50" height="50" relative="1" as="geometry">
            <mxPoint x="-57.5" y="495" as="sourcePoint" />
            <mxPoint y="540" as="targetPoint" />
          </mxGeometry>
        </mxCell>
        <mxCell id="VxdRvXpQJMo_E4zNavWg-126" value="" style="endArrow=none;html=1;rounded=0;entryX=0.5;entryY=1;entryDx=0;entryDy=0;exitX=0.5;exitY=0;exitDx=0;exitDy=0;" parent="WIyWlLk6GJQsqaUBKTNV-1" target="VxdRvXpQJMo_E4zNavWg-120" edge="1">
          <mxGeometry width="50" height="50" relative="1" as="geometry">
            <mxPoint x="-25" y="495" as="sourcePoint" />
            <mxPoint y="540" as="targetPoint" />
          </mxGeometry>
        </mxCell>
        <mxCell id="VxdRvXpQJMo_E4zNavWg-127" value="" style="endArrow=none;html=1;rounded=0;entryX=0.5;entryY=0;entryDx=0;entryDy=0;exitX=0.5;exitY=1;exitDx=0;exitDy=0;" parent="WIyWlLk6GJQsqaUBKTNV-1" edge="1">
          <mxGeometry width="50" height="50" relative="1" as="geometry">
            <mxPoint x="-235" y="700" as="sourcePoint" />
            <mxPoint x="-183.5" y="755" as="targetPoint" />
          </mxGeometry>
        </mxCell>
        <mxCell id="VxdRvXpQJMo_E4zNavWg-128" value="&lt;div style=&quot;text-align: justify;&quot;&gt;&lt;font face=&quot;Times New Roman, Times New Roman_EmbeddedFont, Times New Roman_MSFontService, serif&quot;&gt;&lt;span style=&quot;font-size: 16px; font-variant-ligatures: none; white-space-collapse: preserve; background-color: rgb(255, 242, 204);&quot;&gt;Status&lt;/span&gt;&lt;/font&gt;&lt;/div&gt;" style="ellipse;whiteSpace=wrap;html=1;fillColor=#fff2cc;strokeColor=#d6b656;" parent="WIyWlLk6GJQsqaUBKTNV-1" vertex="1">
          <mxGeometry x="-300" y="755" width="73" height="35" as="geometry" />
        </mxCell>
        <mxCell id="VxdRvXpQJMo_E4zNavWg-130" value="&lt;div style=&quot;text-align: justify;&quot;&gt;&lt;font face=&quot;Times New Roman, Times New Roman_EmbeddedFont, Times New Roman_MSFontService, serif&quot;&gt;&lt;span style=&quot;font-size: 16px; font-variant-ligatures: none; white-space-collapse: preserve; background-color: rgb(255, 242, 204);&quot;&gt;Amount&lt;/span&gt;&lt;/font&gt;&lt;/div&gt;" style="ellipse;whiteSpace=wrap;html=1;fillColor=#fff2cc;strokeColor=#d6b656;" parent="WIyWlLk6GJQsqaUBKTNV-1" vertex="1">
          <mxGeometry x="-173" y="715" width="73" height="35" as="geometry" />
        </mxCell>
        <mxCell id="VxdRvXpQJMo_E4zNavWg-132" value="" style="endArrow=none;html=1;rounded=0;entryX=0.25;entryY=1;entryDx=0;entryDy=0;exitX=0.5;exitY=0;exitDx=0;exitDy=0;" parent="WIyWlLk6GJQsqaUBKTNV-1" source="VxdRvXpQJMo_E4zNavWg-128" edge="1">
          <mxGeometry width="50" height="50" relative="1" as="geometry">
            <mxPoint x="-50" y="680" as="sourcePoint" />
            <mxPoint x="-267.5" y="700" as="targetPoint" />
          </mxGeometry>
        </mxCell>
        <mxCell id="VxdRvXpQJMo_E4zNavWg-133" value="" style="endArrow=none;html=1;rounded=0;entryX=1;entryY=1;entryDx=0;entryDy=0;exitX=0.5;exitY=0;exitDx=0;exitDy=0;" parent="WIyWlLk6GJQsqaUBKTNV-1" source="VxdRvXpQJMo_E4zNavWg-130" edge="1">
          <mxGeometry width="50" height="50" relative="1" as="geometry">
            <mxPoint x="-50" y="680" as="sourcePoint" />
            <mxPoint x="-170" y="700" as="targetPoint" />
          </mxGeometry>
        </mxCell>
        <mxCell id="VxdRvXpQJMo_E4zNavWg-134" value="&lt;div style=&quot;text-align: justify;&quot;&gt;&lt;font face=&quot;Times New Roman, Times New Roman_EmbeddedFont, Times New Roman_MSFontService, serif&quot;&gt;&lt;span style=&quot;font-size: 16px; font-variant-ligatures: none; white-space-collapse: preserve; background-color: rgb(255, 242, 204);&quot;&gt;Comments&lt;/span&gt;&lt;/font&gt;&lt;/div&gt;" style="ellipse;whiteSpace=wrap;html=1;fillColor=#fff2cc;strokeColor=#d6b656;" parent="WIyWlLk6GJQsqaUBKTNV-1" vertex="1">
          <mxGeometry x="-550" y="215" width="90" height="40" as="geometry" />
        </mxCell>
        <mxCell id="VxdRvXpQJMo_E4zNavWg-135" value="&lt;div style=&quot;text-align: justify;&quot;&gt;&lt;font face=&quot;Times New Roman, Times New Roman_EmbeddedFont, Times New Roman_MSFontService, serif&quot;&gt;&lt;span style=&quot;font-size: 16px; font-variant-ligatures: none; white-space-collapse: preserve; background-color: rgb(255, 242, 204);&quot;&gt;Date&lt;/span&gt;&lt;/font&gt;&lt;/div&gt;" style="ellipse;whiteSpace=wrap;html=1;fillColor=#fff2cc;strokeColor=#d6b656;" parent="WIyWlLk6GJQsqaUBKTNV-1" vertex="1">
          <mxGeometry x="-441.5" y="217.5" width="73" height="35" as="geometry" />
        </mxCell>
        <mxCell id="VxdRvXpQJMo_E4zNavWg-136" value="&lt;div style=&quot;text-align: justify;&quot;&gt;&lt;font face=&quot;Times New Roman, Times New Roman_EmbeddedFont, Times New Roman_MSFontService, serif&quot;&gt;&lt;span style=&quot;font-size: 16px; font-variant-ligatures: none; white-space-collapse: preserve; background-color: rgb(255, 242, 204);&quot;&gt;Rating&lt;/span&gt;&lt;/font&gt;&lt;/div&gt;" style="ellipse;whiteSpace=wrap;html=1;fillColor=#fff2cc;strokeColor=#d6b656;" parent="WIyWlLk6GJQsqaUBKTNV-1" vertex="1">
          <mxGeometry x="-340" y="220" width="73" height="35" as="geometry" />
        </mxCell>
        <mxCell id="VxdRvXpQJMo_E4zNavWg-137" value="" style="endArrow=none;html=1;rounded=0;entryX=0.5;entryY=1;entryDx=0;entryDy=0;exitX=0;exitY=0;exitDx=0;exitDy=0;" parent="WIyWlLk6GJQsqaUBKTNV-1" target="VxdRvXpQJMo_E4zNavWg-134" edge="1">
          <mxGeometry width="50" height="50" relative="1" as="geometry">
            <mxPoint x="-470" y="285" as="sourcePoint" />
            <mxPoint x="-170" y="460" as="targetPoint" />
          </mxGeometry>
        </mxCell>
        <mxCell id="VxdRvXpQJMo_E4zNavWg-138" value="" style="endArrow=none;html=1;rounded=0;entryX=0.5;entryY=1;entryDx=0;entryDy=0;exitX=0.5;exitY=0;exitDx=0;exitDy=0;edgeStyle=orthogonalEdgeStyle;" parent="WIyWlLk6GJQsqaUBKTNV-1" target="VxdRvXpQJMo_E4zNavWg-135" edge="1">
          <mxGeometry width="50" height="50" relative="1" as="geometry">
            <mxPoint x="-405" y="285" as="sourcePoint" />
            <mxPoint x="-170" y="460" as="targetPoint" />
          </mxGeometry>
        </mxCell>
        <mxCell id="VxdRvXpQJMo_E4zNavWg-139" value="" style="endArrow=none;html=1;rounded=0;entryX=0.5;entryY=1;entryDx=0;entryDy=0;exitX=1;exitY=0;exitDx=0;exitDy=0;" parent="WIyWlLk6GJQsqaUBKTNV-1" target="VxdRvXpQJMo_E4zNavWg-136" edge="1">
          <mxGeometry width="50" height="50" relative="1" as="geometry">
            <mxPoint x="-340" y="285" as="sourcePoint" />
            <mxPoint x="-170" y="460" as="targetPoint" />
          </mxGeometry>
        </mxCell>
        <mxCell id="VxdRvXpQJMo_E4zNavWg-142" value="&lt;div style=&quot;text-align: justify;&quot;&gt;&lt;font face=&quot;Times New Roman, Times New Roman_EmbeddedFont, Times New Roman_MSFontService, serif&quot;&gt;&lt;span style=&quot;font-size: 16px; font-variant-ligatures: none; white-space-collapse: preserve; background-color: rgb(255, 242, 204);&quot;&gt;Message&lt;/span&gt;&lt;/font&gt;&lt;/div&gt;" style="ellipse;whiteSpace=wrap;html=1;fillColor=#fff2cc;strokeColor=#d6b656;" parent="WIyWlLk6GJQsqaUBKTNV-1" vertex="1">
          <mxGeometry x="-820" y="555" width="80" height="40" as="geometry" />
        </mxCell>
        <mxCell id="VxdRvXpQJMo_E4zNavWg-143" value="&lt;div style=&quot;text-align: justify;&quot;&gt;&lt;font face=&quot;Times New Roman, Times New Roman_EmbeddedFont, Times New Roman_MSFontService, serif&quot;&gt;&lt;span style=&quot;font-size: 16px; font-variant-ligatures: none; white-space-collapse: preserve; background-color: rgb(255, 242, 204);&quot;&gt;Type&lt;/span&gt;&lt;/font&gt;&lt;/div&gt;" style="ellipse;whiteSpace=wrap;html=1;fillColor=#fff2cc;strokeColor=#d6b656;" parent="WIyWlLk6GJQsqaUBKTNV-1" vertex="1">
          <mxGeometry x="-700" y="445" width="70" height="35" as="geometry" />
        </mxCell>
        <mxCell id="VxdRvXpQJMo_E4zNavWg-144" value="&lt;div style=&quot;text-align: justify;&quot;&gt;&lt;font face=&quot;Times New Roman, Times New Roman_EmbeddedFont, Times New Roman_MSFontService, serif&quot;&gt;&lt;span style=&quot;font-size: 16px; font-variant-ligatures: none; white-space-collapse: preserve; background-color: rgb(255, 242, 204);&quot;&gt;DateSent&lt;/span&gt;&lt;/font&gt;&lt;/div&gt;" style="ellipse;whiteSpace=wrap;html=1;fillColor=#fff2cc;strokeColor=#d6b656;" parent="WIyWlLk6GJQsqaUBKTNV-1" vertex="1">
          <mxGeometry x="-715" y="555" width="90" height="40" as="geometry" />
        </mxCell>
        <mxCell id="VxdRvXpQJMo_E4zNavWg-145" value="" style="endArrow=none;html=1;rounded=0;entryX=0.5;entryY=1;entryDx=0;entryDy=0;exitX=0.838;exitY=-0.003;exitDx=0;exitDy=0;exitPerimeter=0;" parent="WIyWlLk6GJQsqaUBKTNV-1" target="VxdRvXpQJMo_E4zNavWg-143" edge="1">
          <mxGeometry width="50" height="50" relative="1" as="geometry">
            <mxPoint x="-695.06" y="494.8800000000001" as="sourcePoint" />
            <mxPoint x="-520" y="400" as="targetPoint" />
          </mxGeometry>
        </mxCell>
        <mxCell id="VxdRvXpQJMo_E4zNavWg-146" value="" style="endArrow=none;html=1;rounded=0;entryX=0.5;entryY=0;entryDx=0;entryDy=0;exitX=0.626;exitY=0.944;exitDx=0;exitDy=0;exitPerimeter=0;" parent="WIyWlLk6GJQsqaUBKTNV-1" source="KL3hr4kz5vJMiUH5sQq_-26" target="VxdRvXpQJMo_E4zNavWg-144" edge="1">
          <mxGeometry width="50" height="50" relative="1" as="geometry">
            <mxPoint x="-706.5" y="535" as="sourcePoint" />
            <mxPoint x="-520" y="400" as="targetPoint" />
          </mxGeometry>
        </mxCell>
        <mxCell id="VxdRvXpQJMo_E4zNavWg-147" value="" style="endArrow=none;html=1;rounded=0;entryX=0.191;entryY=0.944;entryDx=0;entryDy=0;exitX=0.5;exitY=0;exitDx=0;exitDy=0;entryPerimeter=0;" parent="WIyWlLk6GJQsqaUBKTNV-1" source="VxdRvXpQJMo_E4zNavWg-142" target="KL3hr4kz5vJMiUH5sQq_-26" edge="1">
          <mxGeometry width="50" height="50" relative="1" as="geometry">
            <mxPoint x="-570" y="450" as="sourcePoint" />
            <mxPoint x="-771.5" y="535" as="targetPoint" />
          </mxGeometry>
        </mxCell>
        <mxCell id="VxdRvXpQJMo_E4zNavWg-149" value="&lt;div style=&quot;text-align: justify;&quot;&gt;&lt;font face=&quot;Times New Roman, Times New Roman_EmbeddedFont, Times New Roman_MSFontService, serif&quot;&gt;&lt;span style=&quot;font-size: 16px; font-variant-ligatures: none; white-space-collapse: preserve; background-color: rgb(255, 242, 204);&quot;&gt;Status&lt;/span&gt;&lt;/font&gt;&lt;/div&gt;" style="ellipse;whiteSpace=wrap;html=1;fillColor=#fff2cc;strokeColor=#d6b656;" parent="WIyWlLk6GJQsqaUBKTNV-1" vertex="1">
          <mxGeometry x="91" y="710.5" width="73" height="35" as="geometry" />
        </mxCell>
        <mxCell id="VxdRvXpQJMo_E4zNavWg-150" value="" style="endArrow=none;html=1;rounded=0;entryX=0.5;entryY=1;entryDx=0;entryDy=0;exitX=0.5;exitY=0;exitDx=0;exitDy=0;" parent="WIyWlLk6GJQsqaUBKTNV-1" edge="1">
          <mxGeometry width="50" height="50" relative="1" as="geometry">
            <mxPoint x="-55" y="750" as="sourcePoint" />
            <mxPoint x="-25" y="725" as="targetPoint" />
          </mxGeometry>
        </mxCell>
        <mxCell id="VxdRvXpQJMo_E4zNavWg-151" value="" style="endArrow=none;html=1;rounded=0;entryX=0;entryY=0;entryDx=0;entryDy=0;exitX=1;exitY=0.5;exitDx=0;exitDy=0;" parent="WIyWlLk6GJQsqaUBKTNV-1" target="VxdRvXpQJMo_E4zNavWg-149" edge="1">
          <mxGeometry width="50" height="50" relative="1" as="geometry">
            <mxPoint x="40" y="705" as="sourcePoint" />
            <mxPoint x="-160" y="630" as="targetPoint" />
          </mxGeometry>
        </mxCell>
        <mxCell id="VxdRvXpQJMo_E4zNavWg-152" value="&lt;div style=&quot;text-align: justify;&quot;&gt;&lt;font face=&quot;Times New Roman, Times New Roman_EmbeddedFont, Times New Roman_MSFontService, serif&quot;&gt;&lt;span style=&quot;font-size: 16px; font-variant-ligatures: none; white-space-collapse: preserve; background-color: rgb(255, 242, 204);&quot;&gt;PlaceInQueue&lt;/span&gt;&lt;/font&gt;&lt;/div&gt;" style="ellipse;whiteSpace=wrap;html=1;fillColor=#fff2cc;strokeColor=#d6b656;" parent="WIyWlLk6GJQsqaUBKTNV-1" vertex="1">
          <mxGeometry x="-385" y="897.5" width="114" height="45" as="geometry" />
        </mxCell>
        <mxCell id="VxdRvXpQJMo_E4zNavWg-153" value="" style="endArrow=none;html=1;rounded=0;entryX=0.75;entryY=1;entryDx=0;entryDy=0;exitX=0.5;exitY=0;exitDx=0;exitDy=0;" parent="WIyWlLk6GJQsqaUBKTNV-1" source="VxdRvXpQJMo_E4zNavWg-152" edge="1">
          <mxGeometry width="50" height="50" relative="1" as="geometry">
            <mxPoint x="-210" y="870" as="sourcePoint" />
            <mxPoint x="-372.5" y="847.5" as="targetPoint" />
          </mxGeometry>
        </mxCell>
        <mxCell id="VxdRvXpQJMo_E4zNavWg-154" value="&lt;div style=&quot;text-align: justify;&quot;&gt;&lt;font face=&quot;Times New Roman, Times New Roman_EmbeddedFont, Times New Roman_MSFontService, serif&quot;&gt;&lt;span style=&quot;font-size: 16px; font-variant-ligatures: none; white-space-collapse: preserve; background-color: rgb(255, 242, 204);&quot;&gt;Email&lt;/span&gt;&lt;/font&gt;&lt;/div&gt;" style="ellipse;whiteSpace=wrap;html=1;fillColor=#fff2cc;strokeColor=#d6b656;" parent="WIyWlLk6GJQsqaUBKTNV-1" vertex="1">
          <mxGeometry x="310" y="337.5" width="73" height="35" as="geometry" />
        </mxCell>
        <mxCell id="VxdRvXpQJMo_E4zNavWg-155" value="" style="endArrow=none;html=1;rounded=0;entryX=0.5;entryY=1;entryDx=0;entryDy=0;exitX=0.969;exitY=0.063;exitDx=0;exitDy=0;exitPerimeter=0;" parent="WIyWlLk6GJQsqaUBKTNV-1" target="VxdRvXpQJMo_E4zNavWg-154" edge="1">
          <mxGeometry width="50" height="50" relative="1" as="geometry">
            <mxPoint x="316.31899999999996" y="397.52" as="sourcePoint" />
            <mxPoint x="-160" y="630" as="targetPoint" />
          </mxGeometry>
        </mxCell>
        <mxCell id="NpfsGp1bHnLLa0srJB3e-0" value="1" style="text;html=1;align=center;verticalAlign=middle;whiteSpace=wrap;rounded=0;fontSize=16;" parent="WIyWlLk6GJQsqaUBKTNV-1" vertex="1">
          <mxGeometry x="197" y="445" width="60" height="30" as="geometry" />
        </mxCell>
        <mxCell id="NpfsGp1bHnLLa0srJB3e-1" value="1" style="text;html=1;align=center;verticalAlign=middle;whiteSpace=wrap;rounded=0;fontSize=16;" parent="WIyWlLk6GJQsqaUBKTNV-1" vertex="1">
          <mxGeometry x="197" y="565" width="60" height="30" as="geometry" />
        </mxCell>
        <mxCell id="NpfsGp1bHnLLa0srJB3e-2" value="1" style="text;html=1;align=center;verticalAlign=middle;whiteSpace=wrap;rounded=0;fontSize=16;" parent="WIyWlLk6GJQsqaUBKTNV-1" vertex="1">
          <mxGeometry x="130" y="600" width="60" height="30" as="geometry" />
        </mxCell>
        <mxCell id="NpfsGp1bHnLLa0srJB3e-3" value="Ν" style="text;html=1;align=center;verticalAlign=middle;whiteSpace=wrap;rounded=0;fontSize=16;" parent="WIyWlLk6GJQsqaUBKTNV-1" vertex="1">
          <mxGeometry x="28" y="532.5" width="60" height="30" as="geometry" />
        </mxCell>
        <mxCell id="NpfsGp1bHnLLa0srJB3e-4" value="1" style="text;html=1;align=center;verticalAlign=middle;whiteSpace=wrap;rounded=0;fontSize=16;" parent="WIyWlLk6GJQsqaUBKTNV-1" vertex="1">
          <mxGeometry x="190" y="650" width="60" height="30" as="geometry" />
        </mxCell>
        <mxCell id="NpfsGp1bHnLLa0srJB3e-5" value="Ν" style="text;html=1;align=center;verticalAlign=middle;whiteSpace=wrap;rounded=0;fontSize=16;" parent="WIyWlLk6GJQsqaUBKTNV-1" vertex="1">
          <mxGeometry x="197" y="870" width="60" height="30" as="geometry" />
        </mxCell>
        <mxCell id="NpfsGp1bHnLLa0srJB3e-6" value="1" style="text;html=1;align=center;verticalAlign=middle;whiteSpace=wrap;rounded=0;fontSize=16;" parent="WIyWlLk6GJQsqaUBKTNV-1" vertex="1">
          <mxGeometry x="-530" y="514" width="60" height="30" as="geometry" />
        </mxCell>
        <mxCell id="NpfsGp1bHnLLa0srJB3e-7" value="1" style="text;html=1;align=center;verticalAlign=middle;whiteSpace=wrap;rounded=0;fontSize=16;" parent="WIyWlLk6GJQsqaUBKTNV-1" vertex="1">
          <mxGeometry x="-445" y="465" width="60" height="30" as="geometry" />
        </mxCell>
        <mxCell id="NpfsGp1bHnLLa0srJB3e-8" value="Ν" style="text;html=1;align=center;verticalAlign=middle;whiteSpace=wrap;rounded=0;fontSize=16;" parent="WIyWlLk6GJQsqaUBKTNV-1" vertex="1">
          <mxGeometry x="-425" y="327" width="60" height="30" as="geometry" />
        </mxCell>
        <mxCell id="NpfsGp1bHnLLa0srJB3e-11" value="Ν" style="text;html=1;align=center;verticalAlign=middle;whiteSpace=wrap;rounded=0;fontSize=16;" parent="WIyWlLk6GJQsqaUBKTNV-1" vertex="1">
          <mxGeometry x="-677" y="512" width="60" height="30" as="geometry" />
        </mxCell>
        <mxCell id="NpfsGp1bHnLLa0srJB3e-13" value="Ν" style="text;html=1;align=center;verticalAlign=middle;whiteSpace=wrap;rounded=0;fontSize=16;" parent="WIyWlLk6GJQsqaUBKTNV-1" vertex="1">
          <mxGeometry x="-147" y="487" width="60" height="30" as="geometry" />
        </mxCell>
        <mxCell id="NpfsGp1bHnLLa0srJB3e-14" value="1" style="text;html=1;align=center;verticalAlign=middle;whiteSpace=wrap;rounded=0;fontSize=16;" parent="WIyWlLk6GJQsqaUBKTNV-1" vertex="1">
          <mxGeometry x="-447" y="535" width="60" height="30" as="geometry" />
        </mxCell>
        <mxCell id="NpfsGp1bHnLLa0srJB3e-15" value="Ν" style="text;html=1;align=center;verticalAlign=middle;whiteSpace=wrap;rounded=0;fontSize=16;" parent="WIyWlLk6GJQsqaUBKTNV-1" vertex="1">
          <mxGeometry x="-450" y="760" width="60" height="30" as="geometry" />
        </mxCell>
        <mxCell id="NpfsGp1bHnLLa0srJB3e-16" value="1" style="text;html=1;align=center;verticalAlign=middle;whiteSpace=wrap;rounded=0;fontSize=16;" parent="WIyWlLk6GJQsqaUBKTNV-1" vertex="1">
          <mxGeometry x="-46" y="535" width="60" height="30" as="geometry" />
        </mxCell>
        <mxCell id="NpfsGp1bHnLLa0srJB3e-17" value="1" style="text;html=1;align=center;verticalAlign=middle;whiteSpace=wrap;rounded=0;fontSize=16;" parent="WIyWlLk6GJQsqaUBKTNV-1" vertex="1">
          <mxGeometry x="-100" y="530" width="60" height="30" as="geometry" />
        </mxCell>
        <mxCell id="NpfsGp1bHnLLa0srJB3e-18" value="1" style="text;html=1;align=center;verticalAlign=middle;whiteSpace=wrap;rounded=0;fontSize=16;" parent="WIyWlLk6GJQsqaUBKTNV-1" vertex="1">
          <mxGeometry x="-178" y="653" width="60" height="30" as="geometry" />
        </mxCell>
        <mxCell id="NpfsGp1bHnLLa0srJB3e-19" value="1" style="text;html=1;align=center;verticalAlign=middle;whiteSpace=wrap;rounded=0;fontSize=16;" parent="WIyWlLk6GJQsqaUBKTNV-1" vertex="1">
          <mxGeometry x="-64" y="660" width="60" height="30" as="geometry" />
        </mxCell>
        <mxCell id="NpfsGp1bHnLLa0srJB3e-24" value="" style="endArrow=none;html=1;rounded=0;fontSize=12;startSize=8;endSize=8;curved=1;entryX=0;entryY=0.5;entryDx=0;entryDy=0;exitX=1;exitY=0.5;exitDx=0;exitDy=0;" parent="WIyWlLk6GJQsqaUBKTNV-1" edge="1">
          <mxGeometry width="50" height="50" relative="1" as="geometry">
            <mxPoint x="305" y="625" as="sourcePoint" />
            <mxPoint x="431" y="624" as="targetPoint" />
          </mxGeometry>
        </mxCell>
        <mxCell id="NpfsGp1bHnLLa0srJB3e-25" style="edgeStyle=none;curved=1;rounded=0;orthogonalLoop=1;jettySize=auto;html=1;exitX=0.5;exitY=1;exitDx=0;exitDy=0;fontSize=12;startSize=8;endSize=8;" parent="WIyWlLk6GJQsqaUBKTNV-1" edge="1">
          <mxGeometry relative="1" as="geometry">
            <mxPoint x="468.5" y="475" as="sourcePoint" />
            <mxPoint x="468.5" y="475" as="targetPoint" />
          </mxGeometry>
        </mxCell>
        <mxCell id="NpfsGp1bHnLLa0srJB3e-37" value="" style="endArrow=none;html=1;rounded=0;fontSize=12;startSize=8;endSize=8;curved=1;exitX=0.617;exitY=0.167;exitDx=0;exitDy=0;entryX=0;entryY=1;entryDx=0;entryDy=0;exitPerimeter=0;" parent="WIyWlLk6GJQsqaUBKTNV-1" edge="1">
          <mxGeometry width="50" height="50" relative="1" as="geometry">
            <mxPoint x="151.27499999999964" y="810.02" as="sourcePoint" />
            <mxPoint x="175" y="645" as="targetPoint" />
          </mxGeometry>
        </mxCell>
        <mxCell id="NpfsGp1bHnLLa0srJB3e-38" value="1" style="text;html=1;align=center;verticalAlign=middle;whiteSpace=wrap;rounded=0;fontSize=16;" parent="WIyWlLk6GJQsqaUBKTNV-1" vertex="1">
          <mxGeometry x="126" y="673" width="60" height="30" as="geometry" />
        </mxCell>
        <mxCell id="1hMTyV5PMrLRTY3RI_EV-0" value="" style="shape=link;html=1;rounded=0;width=-5.294117647058823;entryX=0.5;entryY=0;entryDx=0;entryDy=0;exitX=0.5;exitY=1;exitDx=0;exitDy=0;" parent="WIyWlLk6GJQsqaUBKTNV-1" edge="1">
          <mxGeometry width="100" relative="1" as="geometry">
            <mxPoint x="240" y="645" as="sourcePoint" />
            <mxPoint x="240" y="765" as="targetPoint" />
          </mxGeometry>
        </mxCell>
        <mxCell id="1hMTyV5PMrLRTY3RI_EV-2" value="" style="shape=link;html=1;rounded=0;entryX=0.5;entryY=0;entryDx=0;entryDy=0;exitX=0.497;exitY=0.967;exitDx=0;exitDy=0;exitPerimeter=0;" parent="WIyWlLk6GJQsqaUBKTNV-1" edge="1">
          <mxGeometry width="100" relative="1" as="geometry">
            <mxPoint x="239.73000000000002" y="821.02" as="sourcePoint" />
            <mxPoint x="240" y="897.5" as="targetPoint" />
          </mxGeometry>
        </mxCell>
        <mxCell id="1hMTyV5PMrLRTY3RI_EV-9" value="&lt;font style=&quot;font-size: 18px;&quot;&gt;1&lt;/font&gt;" style="text;html=1;align=center;verticalAlign=middle;whiteSpace=wrap;rounded=0;" parent="WIyWlLk6GJQsqaUBKTNV-1" vertex="1">
          <mxGeometry x="-343" y="490.25" width="55" height="28.5" as="geometry" />
        </mxCell>
        <mxCell id="1hMTyV5PMrLRTY3RI_EV-11" value="" style="shape=link;html=1;rounded=0;edgeStyle=orthogonalEdgeStyle;exitX=1;exitY=1;exitDx=0;exitDy=0;entryX=0;entryY=0.5;entryDx=0;entryDy=0;" parent="WIyWlLk6GJQsqaUBKTNV-1" edge="1">
          <mxGeometry width="100" relative="1" as="geometry">
            <mxPoint x="40" y="535" as="sourcePoint" />
            <mxPoint x="80" y="625" as="targetPoint" />
            <Array as="points">
              <mxPoint x="40" y="625" />
            </Array>
          </mxGeometry>
        </mxCell>
        <mxCell id="1hMTyV5PMrLRTY3RI_EV-12" value="" style="shape=link;html=1;rounded=0;entryX=1;entryY=0.5;entryDx=0;entryDy=0;exitX=0;exitY=0.5;exitDx=0;exitDy=0;" parent="WIyWlLk6GJQsqaUBKTNV-1" edge="1">
          <mxGeometry width="100" relative="1" as="geometry">
            <mxPoint x="-90" y="515" as="sourcePoint" />
            <mxPoint x="-185" y="515" as="targetPoint" />
          </mxGeometry>
        </mxCell>
        <mxCell id="1hMTyV5PMrLRTY3RI_EV-13" value="" style="shape=link;html=1;rounded=0;entryX=0.5;entryY=1;entryDx=0;entryDy=0;exitX=0.5;exitY=0;exitDx=0;exitDy=0;" parent="WIyWlLk6GJQsqaUBKTNV-1" edge="1">
          <mxGeometry width="100" relative="1" as="geometry">
            <mxPoint x="-405" y="355" as="sourcePoint" />
            <mxPoint x="-405" y="325" as="targetPoint" />
          </mxGeometry>
        </mxCell>
        <mxCell id="1hMTyV5PMrLRTY3RI_EV-15" value="" style="shape=link;html=1;rounded=0;entryX=1;entryY=0.5;entryDx=0;entryDy=0;exitX=0;exitY=0.5;exitDx=0;exitDy=0;" parent="WIyWlLk6GJQsqaUBKTNV-1" edge="1">
          <mxGeometry width="100" relative="1" as="geometry">
            <mxPoint x="-620" y="515" as="sourcePoint" />
            <mxPoint x="-674" y="515" as="targetPoint" />
          </mxGeometry>
        </mxCell>
        <mxCell id="1hMTyV5PMrLRTY3RI_EV-17" value="&lt;font style=&quot;font-size: 18px;&quot;&gt;1&lt;/font&gt;" style="text;html=1;align=center;verticalAlign=middle;whiteSpace=wrap;rounded=0;" parent="WIyWlLk6GJQsqaUBKTNV-1" vertex="1">
          <mxGeometry x="325" y="598" width="60" height="30" as="geometry" />
        </mxCell>
        <mxCell id="1hMTyV5PMrLRTY3RI_EV-18" value="&lt;span style=&quot;font-size: 18px;&quot;&gt;Ν&lt;/span&gt;" style="text;html=1;align=center;verticalAlign=middle;whiteSpace=wrap;rounded=0;" parent="WIyWlLk6GJQsqaUBKTNV-1" vertex="1">
          <mxGeometry x="-310" y="273" width="60" height="30" as="geometry" />
        </mxCell>
        <mxCell id="1hMTyV5PMrLRTY3RI_EV-19" value="" style="shape=link;html=1;rounded=0;entryX=1;entryY=0.5;entryDx=0;entryDy=0;exitX=1;exitY=0.5;exitDx=0;exitDy=0;edgeStyle=orthogonalEdgeStyle;" parent="WIyWlLk6GJQsqaUBKTNV-1" edge="1">
          <mxGeometry width="100" relative="1" as="geometry">
            <mxPoint x="511" y="624" as="sourcePoint" />
            <mxPoint x="-340" y="305" as="targetPoint" />
            <Array as="points">
              <mxPoint x="610" y="624" />
              <mxPoint x="610" y="305" />
            </Array>
          </mxGeometry>
        </mxCell>
        <mxCell id="1hMTyV5PMrLRTY3RI_EV-22" value="PhoneNumber" style="ellipse;shape=doubleEllipse;whiteSpace=wrap;html=1;fillColor=#fff2cc;strokeColor=#d6b656;" parent="WIyWlLk6GJQsqaUBKTNV-1" vertex="1">
          <mxGeometry x="488" y="515" width="100" height="38" as="geometry" />
        </mxCell>
        <mxCell id="1hMTyV5PMrLRTY3RI_EV-23" value="SpecialRequests" style="ellipse;shape=doubleEllipse;whiteSpace=wrap;html=1;fillColor=#fff2cc;strokeColor=#d6b656;" parent="WIyWlLk6GJQsqaUBKTNV-1" vertex="1">
          <mxGeometry x="-112.5" y="745.5" width="108.5" height="31.5" as="geometry" />
        </mxCell>
        <mxCell id="1hMTyV5PMrLRTY3RI_EV-24" value="Method" style="ellipse;shape=doubleEllipse;whiteSpace=wrap;html=1;fillColor=#fff2cc;strokeColor=#d6b656;" parent="WIyWlLk6GJQsqaUBKTNV-1" vertex="1">
          <mxGeometry x="-221" y="750" width="83" height="33" as="geometry" />
        </mxCell>
        <mxCell id="ZOGC-HWvvK935U1tQQFZ-0" value="" style="endArrow=none;html=1;rounded=0;exitX=0.5;exitY=0;exitDx=0;exitDy=0;" parent="WIyWlLk6GJQsqaUBKTNV-1" edge="1">
          <mxGeometry width="50" height="50" relative="1" as="geometry">
            <mxPoint x="240" y="495" as="sourcePoint" />
            <mxPoint x="240" y="435" as="targetPoint" />
          </mxGeometry>
        </mxCell>
        <mxCell id="ZOGC-HWvvK935U1tQQFZ-1" value="" style="endArrow=none;html=1;rounded=0;entryX=0.5;entryY=1;entryDx=0;entryDy=0;" parent="WIyWlLk6GJQsqaUBKTNV-1" edge="1">
          <mxGeometry width="50" height="50" relative="1" as="geometry">
            <mxPoint x="-25" y="586" as="sourcePoint" />
            <mxPoint x="-25" y="535" as="targetPoint" />
          </mxGeometry>
        </mxCell>
        <mxCell id="ZOGC-HWvvK935U1tQQFZ-2" value="" style="endArrow=none;html=1;rounded=0;exitX=0.5;exitY=0;exitDx=0;exitDy=0;entryX=0.147;entryY=0.006;entryDx=0;entryDy=0;edgeStyle=orthogonalEdgeStyle;entryPerimeter=0;" parent="WIyWlLk6GJQsqaUBKTNV-1" target="NpfsGp1bHnLLa0srJB3e-17" edge="1">
          <mxGeometry width="50" height="50" relative="1" as="geometry">
            <mxPoint x="-133" y="580" as="sourcePoint" />
            <mxPoint x="84" y="586" as="targetPoint" />
            <Array as="points">
              <mxPoint x="-130" y="529" />
              <mxPoint x="-91" y="529" />
            </Array>
          </mxGeometry>
        </mxCell>
        <mxCell id="KL3hr4kz5vJMiUH5sQq_-0" value="" style="shape=link;html=1;rounded=0;exitX=0.456;exitY=0.983;exitDx=0;exitDy=0;exitPerimeter=0;edgeStyle=orthogonalEdgeStyle;" parent="WIyWlLk6GJQsqaUBKTNV-1" edge="1">
          <mxGeometry width="100" relative="1" as="geometry">
            <mxPoint x="-136.51999999999998" y="638.98" as="sourcePoint" />
            <mxPoint x="-170" y="680.0344827586207" as="targetPoint" />
            <Array as="points">
              <mxPoint x="-133" y="639" />
              <mxPoint x="-133" y="680" />
            </Array>
          </mxGeometry>
        </mxCell>
        <mxCell id="KL3hr4kz5vJMiUH5sQq_-1" value="" style="shape=link;html=1;rounded=0;entryX=0.5;entryY=1;entryDx=0;entryDy=0;" parent="WIyWlLk6GJQsqaUBKTNV-1" edge="1">
          <mxGeometry width="100" relative="1" as="geometry">
            <mxPoint x="-24" y="684" as="sourcePoint" />
            <mxPoint x="-25" y="645" as="targetPoint" />
          </mxGeometry>
        </mxCell>
        <mxCell id="KL3hr4kz5vJMiUH5sQq_-2" value="" style="shape=link;html=1;rounded=0;entryX=0.5;entryY=1;entryDx=0;entryDy=0;exitX=0.511;exitY=0.07;exitDx=0;exitDy=0;exitPerimeter=0;" parent="WIyWlLk6GJQsqaUBKTNV-1" edge="1">
          <mxGeometry width="100" relative="1" as="geometry">
            <mxPoint x="241.42999999999984" y="607.8" as="sourcePoint" />
            <mxPoint x="240" y="555" as="targetPoint" />
          </mxGeometry>
        </mxCell>
        <mxCell id="KL3hr4kz5vJMiUH5sQq_-3" value="RestaurantAdministrator" style="rounded=0;whiteSpace=wrap;html=1;fillColor=#DAE8FC;" parent="WIyWlLk6GJQsqaUBKTNV-1" vertex="1">
          <mxGeometry x="200" y="394.5" width="134" height="40.5" as="geometry" />
        </mxCell>
        <mxCell id="KL3hr4kz5vJMiUH5sQq_-4" value="Restaura&lt;span style=&quot;background-color: initial;&quot;&gt;nt&lt;/span&gt;" style="shape=ext;margin=3;double=1;whiteSpace=wrap;html=1;align=center;fillColor=#DAE8FC;" parent="WIyWlLk6GJQsqaUBKTNV-1" vertex="1">
          <mxGeometry x="174" y="605" width="132" height="40" as="geometry" />
        </mxCell>
        <mxCell id="KL3hr4kz5vJMiUH5sQq_-5" value="Review" style="shape=ext;margin=3;double=1;whiteSpace=wrap;html=1;align=center;fillColor=#DAE8FC;" parent="WIyWlLk6GJQsqaUBKTNV-1" vertex="1">
          <mxGeometry x="-474" y="285" width="137" height="40" as="geometry" />
        </mxCell>
        <mxCell id="KL3hr4kz5vJMiUH5sQq_-6" value="Reservation" style="shape=ext;margin=3;double=1;whiteSpace=wrap;html=1;align=center;fillColor=#DAE8FC;" parent="WIyWlLk6GJQsqaUBKTNV-1" vertex="1">
          <mxGeometry x="-96" y="495" width="169" height="40" as="geometry" />
        </mxCell>
        <mxCell id="KL3hr4kz5vJMiUH5sQq_-7" value="Payment" style="shape=ext;margin=3;double=1;whiteSpace=wrap;html=1;align=center;fillColor=#DAE8FC;" parent="WIyWlLk6GJQsqaUBKTNV-1" vertex="1">
          <mxGeometry x="-313.5" y="663" width="144.5" height="40" as="geometry" />
        </mxCell>
        <mxCell id="KL3hr4kz5vJMiUH5sQq_-8" value="PreOrder" style="shape=ext;margin=3;double=1;whiteSpace=wrap;html=1;align=center;fillColor=#DAE8FC;" parent="WIyWlLk6GJQsqaUBKTNV-1" vertex="1">
          <mxGeometry x="-42" y="682" width="104" height="43" as="geometry" />
        </mxCell>
        <mxCell id="KL3hr4kz5vJMiUH5sQq_-9" value="WaitList" style="shape=ext;margin=3;double=1;whiteSpace=wrap;html=1;align=center;fillColor=#DAE8FC;" parent="WIyWlLk6GJQsqaUBKTNV-1" vertex="1">
          <mxGeometry x="-465" y="805" width="128" height="45" as="geometry" />
        </mxCell>
        <mxCell id="KL3hr4kz5vJMiUH5sQq_-10" value="Table" style="shape=ext;margin=3;double=1;whiteSpace=wrap;html=1;align=center;fillColor=#DAE8FC;" parent="WIyWlLk6GJQsqaUBKTNV-1" vertex="1">
          <mxGeometry x="190" y="897.5" width="100" height="40" as="geometry" />
        </mxCell>
        <mxCell id="KL3hr4kz5vJMiUH5sQq_-12" value="" style="shape=link;html=1;rounded=0;exitX=0.25;exitY=1;exitDx=0;exitDy=0;entryX=0;entryY=0.5;entryDx=0;entryDy=0;" parent="WIyWlLk6GJQsqaUBKTNV-1" edge="1">
          <mxGeometry relative="1" as="geometry">
            <mxPoint x="-338" y="832" as="sourcePoint" />
            <mxPoint x="105" y="830" as="targetPoint" />
          </mxGeometry>
        </mxCell>
        <mxCell id="KL3hr4kz5vJMiUH5sQq_-24" value="" style="shape=link;html=1;rounded=0;exitX=0.5;exitY=1;exitDx=0;exitDy=0;entryX=0.452;entryY=0.072;entryDx=0;entryDy=0;entryPerimeter=0;" parent="WIyWlLk6GJQsqaUBKTNV-1" source="KL3hr4kz5vJMiUH5sQq_-28" target="KL3hr4kz5vJMiUH5sQq_-9" edge="1">
          <mxGeometry relative="1" as="geometry">
            <mxPoint x="-405" y="670" as="sourcePoint" />
            <mxPoint x="-216" y="644.31" as="targetPoint" />
          </mxGeometry>
        </mxCell>
        <mxCell id="KL3hr4kz5vJMiUH5sQq_-26" value="Notification" style="shape=ext;margin=3;double=1;whiteSpace=wrap;html=1;align=center;fillColor=#DAE8FC;" parent="WIyWlLk6GJQsqaUBKTNV-1" vertex="1">
          <mxGeometry x="-786" y="490.25" width="115" height="40" as="geometry" />
        </mxCell>
        <mxCell id="KL3hr4kz5vJMiUH5sQq_-28" value="Registers" style="shape=rhombus;double=1;perimeter=rhombusPerimeter;whiteSpace=wrap;html=1;align=center;fillColor=#F8CECC;" parent="WIyWlLk6GJQsqaUBKTNV-1" vertex="1">
          <mxGeometry x="-470" y="590" width="129" height="70" as="geometry" />
        </mxCell>
        <mxCell id="KL3hr4kz5vJMiUH5sQq_-29" value="Gets" style="shape=rhombus;double=1;perimeter=rhombusPerimeter;whiteSpace=wrap;html=1;align=center;fillColor=#F8CECC;" parent="WIyWlLk6GJQsqaUBKTNV-1" vertex="1">
          <mxGeometry x="-635" y="485" width="120" height="60" as="geometry" />
        </mxCell>
        <mxCell id="KL3hr4kz5vJMiUH5sQq_-30" value="Writes" style="shape=rhombus;double=1;perimeter=rhombusPerimeter;whiteSpace=wrap;html=1;align=center;fillColor=#F8CECC;" parent="WIyWlLk6GJQsqaUBKTNV-1" vertex="1">
          <mxGeometry x="-472.25" y="347" width="134.5" height="73" as="geometry" />
        </mxCell>
        <mxCell id="KL3hr4kz5vJMiUH5sQq_-31" value="MakesOrCancels" style="shape=rhombus;double=1;perimeter=rhombusPerimeter;whiteSpace=wrap;html=1;align=center;fillColor=#F8CECC;" parent="WIyWlLk6GJQsqaUBKTNV-1" vertex="1">
          <mxGeometry x="-290" y="487" width="125" height="68" as="geometry" />
        </mxCell>
        <mxCell id="KL3hr4kz5vJMiUH5sQq_-32" value="PayOff" style="shape=rhombus;double=1;perimeter=rhombusPerimeter;whiteSpace=wrap;html=1;align=center;fillColor=#F8CECC;" parent="WIyWlLk6GJQsqaUBKTNV-1" vertex="1">
          <mxGeometry x="-193" y="580" width="120" height="60" as="geometry" />
        </mxCell>
        <mxCell id="KL3hr4kz5vJMiUH5sQq_-33" value="Include" style="shape=rhombus;double=1;perimeter=rhombusPerimeter;whiteSpace=wrap;html=1;align=center;fillColor=#F8CECC;" parent="WIyWlLk6GJQsqaUBKTNV-1" vertex="1">
          <mxGeometry x="-73" y="587" width="98" height="60" as="geometry" />
        </mxCell>
        <mxCell id="KL3hr4kz5vJMiUH5sQq_-34" value="BelongsTo" style="shape=rhombus;double=1;perimeter=rhombusPerimeter;whiteSpace=wrap;html=1;align=center;fillColor=#F8CECC;" parent="WIyWlLk6GJQsqaUBKTNV-1" vertex="1">
          <mxGeometry x="70" y="595" width="91" height="60" as="geometry" />
        </mxCell>
        <mxCell id="KL3hr4kz5vJMiUH5sQq_-35" value="WrittenFor" style="shape=rhombus;double=1;perimeter=rhombusPerimeter;whiteSpace=wrap;html=1;align=center;fillColor=#F8CECC;" parent="WIyWlLk6GJQsqaUBKTNV-1" vertex="1">
          <mxGeometry x="414" y="593" width="120" height="60" as="geometry" />
        </mxCell>
        <mxCell id="D0c4eCrwlF0EBqlCVNlE-0" value="M&lt;span style=&quot;background-color: initial;&quot;&gt;anages&lt;/span&gt;" style="shape=rhombus;double=1;perimeter=rhombusPerimeter;whiteSpace=wrap;html=1;align=center;fillColor=#F8CECC;" parent="WIyWlLk6GJQsqaUBKTNV-1" vertex="1">
          <mxGeometry x="181" y="495" width="120" height="60" as="geometry" />
        </mxCell>
        <mxCell id="D0c4eCrwlF0EBqlCVNlE-1" value="Has" style="shape=rhombus;double=1;perimeter=rhombusPerimeter;whiteSpace=wrap;html=1;align=center;fillColor=#F8CECC;" parent="WIyWlLk6GJQsqaUBKTNV-1" vertex="1">
          <mxGeometry x="180" y="763" width="120" height="60" as="geometry" />
        </mxCell>
        <mxCell id="S3tXNy4Gqlxuxw3oeAZ1-1" value="" style="endArrow=none;html=1;rounded=0;exitX=0;exitY=1;exitDx=0;exitDy=0;entryX=0.75;entryY=0;entryDx=0;entryDy=0;" parent="WIyWlLk6GJQsqaUBKTNV-1" source="S3tXNy4Gqlxuxw3oeAZ1-3" target="KL3hr4kz5vJMiUH5sQq_-4" edge="1">
          <mxGeometry width="50" height="50" relative="1" as="geometry">
            <mxPoint x="502.2150108302494" y="484.99928107275036" as="sourcePoint" />
            <mxPoint x="265" y="591.52" as="targetPoint" />
          </mxGeometry>
        </mxCell>
        <mxCell id="S3tXNy4Gqlxuxw3oeAZ1-3" value="Name" style="ellipse;whiteSpace=wrap;html=1;align=center;fillColor=#FFF2CC;" parent="WIyWlLk6GJQsqaUBKTNV-1" vertex="1">
          <mxGeometry x="447" y="447" width="100" height="40" as="geometry" />
        </mxCell>
        <mxCell id="JOmpT_iqUDo3Bo3Br7xI-0" value="Manages" style="shape=rhombus;double=1;perimeter=rhombusPerimeter;whiteSpace=wrap;html=1;align=center;fillColor=#F8CECC;" parent="WIyWlLk6GJQsqaUBKTNV-1" vertex="1">
          <mxGeometry x="83.5" y="793" width="107.5" height="60" as="geometry" />
        </mxCell>
        <mxCell id="mUtanfh8xpeCkaH1g7ch-0" value="StartDate" style="ellipse;whiteSpace=wrap;html=1;fillColor=#FFF2CC;" vertex="1" parent="WIyWlLk6GJQsqaUBKTNV-1">
          <mxGeometry x="121" y="456" width="76" height="39" as="geometry" />
        </mxCell>
        <mxCell id="mUtanfh8xpeCkaH1g7ch-1" value="" style="endArrow=none;html=1;rounded=0;entryX=0;entryY=0;entryDx=0;entryDy=0;exitX=1;exitY=1;exitDx=0;exitDy=0;" edge="1" parent="WIyWlLk6GJQsqaUBKTNV-1" source="mUtanfh8xpeCkaH1g7ch-0" target="D0c4eCrwlF0EBqlCVNlE-0">
          <mxGeometry width="50" height="50" relative="1" as="geometry">
            <mxPoint x="-26" y="505" as="sourcePoint" />
            <mxPoint x="24" y="455" as="targetPoint" />
          </mxGeometry>
        </mxCell>
        <mxCell id="mUtanfh8xpeCkaH1g7ch-2" value="RegistrationDate" style="ellipse;whiteSpace=wrap;html=1;fillColor=#FFF2CC;" vertex="1" parent="WIyWlLk6GJQsqaUBKTNV-1">
          <mxGeometry x="-558" y="677" width="106" height="48" as="geometry" />
        </mxCell>
        <mxCell id="mUtanfh8xpeCkaH1g7ch-3" value="" style="endArrow=none;html=1;rounded=0;entryX=0.5;entryY=0;entryDx=0;entryDy=0;exitX=0;exitY=1;exitDx=0;exitDy=0;" edge="1" parent="WIyWlLk6GJQsqaUBKTNV-1" source="KL3hr4kz5vJMiUH5sQq_-28" target="mUtanfh8xpeCkaH1g7ch-2">
          <mxGeometry width="50" height="50" relative="1" as="geometry">
            <mxPoint x="-26" y="605" as="sourcePoint" />
            <mxPoint x="24" y="555" as="targetPoint" />
          </mxGeometry>
        </mxCell>
        <mxCell id="mUtanfh8xpeCkaH1g7ch-7" value="Status" style="ellipse;whiteSpace=wrap;html=1;fillColor=#FFF2CC;" vertex="1" parent="WIyWlLk6GJQsqaUBKTNV-1">
          <mxGeometry x="-202" y="546" width="61" height="34" as="geometry" />
        </mxCell>
        <mxCell id="mUtanfh8xpeCkaH1g7ch-8" value="" style="endArrow=none;html=1;rounded=0;exitX=0;exitY=0;exitDx=0;exitDy=0;entryX=1;entryY=1;entryDx=0;entryDy=0;" edge="1" parent="WIyWlLk6GJQsqaUBKTNV-1" source="mUtanfh8xpeCkaH1g7ch-7" target="KL3hr4kz5vJMiUH5sQq_-31">
          <mxGeometry width="50" height="50" relative="1" as="geometry">
            <mxPoint x="-26" y="605" as="sourcePoint" />
            <mxPoint x="24" y="555" as="targetPoint" />
          </mxGeometry>
        </mxCell>
        <mxCell id="mUtanfh8xpeCkaH1g7ch-9" value="N" style="text;html=1;align=center;verticalAlign=middle;whiteSpace=wrap;rounded=0;" vertex="1" parent="WIyWlLk6GJQsqaUBKTNV-1">
          <mxGeometry x="-353" y="795" width="70" height="40" as="geometry" />
        </mxCell>
      </root>
    </mxGraphModel>
  </diagram>
</mxfile>
